<?xml version="1.0" encoding="iso-8859-1"?>
<!-- Generator: Adobe Illustrator 19.0.0, SVG Export Plug-In . SVG Version: 6.00 Build 0)  -->
<svg version="1.1" id="Capa_1" xmlns="http://www.w3.org/2000/svg" xmlns:xlink="http://www.w3.org/1999/xlink" x="0px" y="0px"
	 viewBox="0 0 512.003 512.003" style="enable-background:new 0 0 512.003 512.003;" xml:space="preserve">
<g>
	<g>
		<path style="fill:#E85454;" d="M341.912,211.881c-4.414-4.418-12.632-5.616-19.802-5.616h-36.979c-0.581,0-1.095,0.41-1.271,1.013
			l-24.962,85.634c-0.273,0.937,0.369,1.894,1.271,1.894h20.386c0.581,0,1.095-0.41,1.271-1.013l6.862-23.489
			c0.176-0.604,0.676-1.014,1.258-1.013c3.532,0.008,15.891,0.026,21.793-0.096c14.315-0.304,27.627-6.026,34.116-29.768
			C349.546,225.918,346.83,216.805,341.912,211.881L341.912,211.881z M324.383,239.08c-1.973,6.336-4.143,8.737-6.84,10.661
			c-4.542,3.244-7.767,3.037-21.911,3.069c-0.904,0.002-1.534-0.956-1.259-1.895l8.047-27.504c0.176-0.603,0.69-1.012,1.271-1.012
			c13.228,0,17.237-0.494,19.977,1.951C325.47,225.958,327.247,229.895,324.383,239.08L324.383,239.08z"/>
		<path style="fill:#E85454;" d="M65.163,274.872c0,0-38.285,9.148-39.869-4.554c-0.927-8.005,7.664-34.164,10.65-38.809
			c3.34-5.201,8.187-7.31,13.121-8.061c9.439-1.433,20.49,0.733,25.544,2.026c0.676,0.173,1.343-0.255,1.554-0.975l4.64-15.796
			c0.251-0.855-0.253-1.749-1.068-1.88c-4.783-0.77-20.028-2.923-36.469-2.097c-4.851,0.242-11.141,1.567-15.673,3.649
			c-11.025,5.05-16.685,16.39-26.24,55.57c-0.389,1.595-3.347,13.888,0.954,21.18c4.885,8.278,13.772,10.009,17.209,10.419
			c14.194,1.689,35.899-0.383,40.519-0.862c0.538-0.056,0.986-0.458,1.144-1.021l5.366-19.099L65.163,274.872z"/>
		<path style="fill:#E85454;" d="M158.613,214.195c-6.121-8.657-15.902-9.178-32.744-9.547c-26.565-0.589-34.66,3.151-40.469,20.661
			c-1.529,4.608-7.476,23.832-10.006,33.386c-4.108,15.534-4.533,28.534,9.847,35.533c6.055,2.954,28.36,2.259,36.646,1.738
			c8.283-0.521,13.272-3.128,16.968-6.249c4.929-4.158,7.393-9.718,9.798-16.668c1.971-5.684,5.072-16.259,9.8-33.504
			C161.302,229.144,163.365,220.922,158.613,214.195L158.613,214.195z M135.675,234.435c-9.092,32.909-10.368,39.174-15.587,43.15
			c-3.083,2.352-8.111,2.408-8.111,2.408s-4.872,0.217-6.9-0.056c-0.83-0.112-5.436-0.18-7.728-3.934
			c-2.662-4.369,0.799-13.541,0.799-13.541c10.693-35.777,11.276-36.737,14.099-39.064c3.085-2.54,10.192-2.535,14.202-2.352
			c0.548,0.025,8.588-0.304,10.339,3.509C138.052,227.314,135.675,234.435,135.675,234.435L135.675,234.435z"/>
		<path style="fill:#E85454;" d="M391.402,206.296c-9.061,0-11.717,1.812-15.749,4.567c-4.368,2.991-8.642,11.536-11.231,15.601
			c-2.128,3.342-32.005,54.534-38.628,65.887c-0.565,0.968,0.082,2.219,1.134,2.219h19.673c0.464,0,0.895-0.263,1.137-0.694
			l9.75-17.328c0.243-0.431,0.673-0.694,1.137-0.694h25.471c0.765,0,1.374,0.7,1.332,1.533l-0.8,15.923
			c-0.042,0.833,0.567,1.533,1.332,1.533h20.133c0.716,0,1.304-0.615,1.333-1.394l3.195-85.64c0.031-0.825-0.575-1.513-1.333-1.513
			L391.402,206.296L391.402,206.296z M386.222,259.502l-17.156,0.092c-1.047,0.006-1.692-1.245-1.142-2.217l17.274-30.512
			c0.724-1.279,2.536-0.666,2.468,0.835L386.222,259.502L386.222,259.502z"/>
		<path style="fill:#E85454;" d="M491.225,279.837l-3.656,0.081c2.85-2.284,8.349-21.223,12.404-36.47
			c3.314-12.461,6.561-22.964,0.795-30.072c-6.148-7.577-16.778-8.359-32.667-8.728c-12.501-0.289-23.133,0.338-29.796,5.048
			c-4.414,3.118-7.221,6.482-10.698,16.594c-1.577,4.589-6.595,21.251-8.984,30.848c-1.96,7.861-9.081,29.736,9.064,37.041
			c3.607,1.453,9.165,1.802,16.134,1.947c0.421,0.009,0.821-0.181,1.079-0.544c4.085-5.753,11.95-11.432,21.516-13.92
			c3.659-0.956,8.767-1.626,12.894-1.725c3.175-0.074,5.248,0.075,5.248,0.075c-4.844,0.465-10.621,1.564-16.257,3.717
			c-19.463,7.443-19.907,26.113-19.597,23.482c0.662-1.367,4.776-7.486,14.927-9.78c7.074-1.597,14.702-1.277,43.369-1.29
			c0.589,0,1.092-0.421,1.261-1.036l3.685-13.396c0.257-0.933-0.384-1.871-1.278-1.871L491.225,279.837L491.225,279.837z
			 M478.978,231.835c-0.635,2.945-6.025,22.65-8.349,30.242c-1.552,5.07-2.967,10.599-6.361,13.95
			c-2.984,2.948-6.401,3.463-10.339,3.909c-3.081,0.354-7.905-0.074-7.905-0.074s-4.382-0.366-6.29-4.139
			c-1.404-2.774-0.834-6.454-0.12-9.315c0.498-1.986,8.543-30.869,10.166-35.024c1.447-3.711,2.082-5.79,4.699-7.987
			c2.711-2.277,6.583-2.246,8.041-2.395c2.563-0.261,7.93-0.062,7.93-0.062s6.142,0.062,8.292,2.488
			C480.732,225.682,479.555,229.163,478.978,231.835L478.978,231.835z"/>
		<path style="fill:#E85454;" d="M178.474,205.942l-25.228,86.741c-0.273,0.937,0.369,1.893,1.272,1.893h18.719
			c0.58,0,1.093-0.408,1.27-1.009l18.246-61.973c0.426-1.448,2.349-1.3,2.585,0.199l7.422,47.198
			c0.11,0.698,0.665,1.208,1.315,1.208h2.597c0.424,0,0.822-0.219,1.074-0.591l32.424-47.91c0.895-1.323,2.802-0.264,2.345,1.303
			l-17.409,59.682c-0.273,0.937,0.369,1.894,1.271,1.894h19.39c0.581,0,1.095-0.41,1.271-1.013l24.938-85.377
			c0.274-0.937-0.355-1.894-1.258-1.894c-5.299-0.003-20.444-0.012-21.112,0.001c-0.856,0.022-10.499-0.475-17.128,8.703
			c-2.387,3.303-11.187,16.606-15.048,22.458c-0.688,1.043-2.182,0.662-2.389-0.603c-0.789-4.822-2.243-13.638-3.143-18.709
			c-1.432-8.055-6.562-11.307-13.939-11.939C194.369,205.895,178.474,205.942,178.474,205.942L178.474,205.942z"/>
	</g>
	<g>
		<path style="fill:#D84848;" d="M272.033,292.912l24.962-85.634c0.176-0.604,0.69-1.013,1.271-1.013H285.13
			c-0.581,0-1.096,0.41-1.271,1.013l-24.962,85.634c-0.273,0.937,0.369,1.893,1.271,1.893h13.136
			C272.402,294.805,271.76,293.849,272.033,292.912z"/>
		<path style="fill:#D84848;" d="M316.745,222.413c2.967,0.069,5.331,0.516,6.923,1.937c1.802,1.607,3.579,5.545,0.715,14.729
			c-1.973,6.336-4.143,8.737-6.84,10.661c-2.989,2.135-5.543,2.712-9.396,2.904c0.609,0.352,12.487,0.034,13.189-0.002
			c9.128-0.473,13.507-4.972,16.182-13.562c2.865-9.184,1.088-13.122-0.715-14.729c-1.748-1.561-4.419-1.951-7.808-1.951
			C328.67,222.399,317.07,222.391,316.745,222.413z"/>
		<path style="fill:#D84848;" d="M15.444,285.125c-4.301-7.292-1.343-19.585-0.954-21.18c9.256-37.953,14.805-50.333,26.24-55.57
			c4.532-2.082,10.822-3.407,15.673-3.649c0.392-0.02,0.783-0.036,1.174-0.053c-4.491-0.174-9.345-0.197-14.31,0.053
			c-4.851,0.242-11.141,1.567-15.673,3.649c-11.225,5.141-16.821,16.949-26.24,55.57c-0.389,1.595-3.347,13.888,0.954,21.18
			c4.885,8.278,13.772,10.009,17.209,10.419c5.986,0.712,13.304,0.755,20.117,0.531C31.149,295.723,21.089,294.692,15.444,285.125z"
			/>
		<path style="fill:#D84848;" d="M98.376,294.228c-14.384-7.001-13.953-20.008-9.847-35.533c2.53-9.553,8.477-28.778,10.006-33.386
			c4.68-14.107,10.598-19.76,29.643-20.606c-0.76-0.019-1.519-0.037-2.309-0.055c-26.565-0.589-34.66,3.151-40.469,20.661
			c-1.529,4.608-7.476,23.832-10.006,33.386c-4.108,15.534-4.533,28.534,9.847,35.533c4.508,2.199,18.022,2.375,28.054,2.107
			C106.891,296.124,101.05,295.532,98.376,294.228z"/>
		<path style="fill:#D84848;" d="M133.223,277.585c5.219-3.976,6.486-10.208,15.587-43.15c0,0,2.378-7.121,1.113-9.879
			c-1.751-3.813-9.791-3.484-10.339-3.509c-1.63-0.075-3.448-0.044-5.328,0.044c-0.745,0.034-1.963,0.071-3.315,0.256
			c2.361,0.379,4.942,1.239,5.847,3.209c1.264,2.758-1.113,9.879-1.113,9.879s-6.528,23.627-7.973,28.418
			c-1.571,5.207-3.346,11.48-7.614,14.732c-1.332,1.016-3.026,1.602-4.522,1.942c1.253,0.32,2.294,0.362,2.647,0.41
			C119.212,280.071,128.903,280.88,133.223,277.585z"/>
		<path style="fill:#D84848;" d="M338.929,292.351c6.624-11.353,36.5-62.545,38.628-65.887c2.588-4.065,6.862-12.61,11.231-15.601
			c4.032-2.755,6.689-4.567,15.749-4.567h-13.136c-9.061,0-11.717,1.812-15.749,4.567c-4.368,2.991-8.642,11.536-11.231,15.601
			c-2.128,3.342-32.005,54.534-38.628,65.887c-0.564,0.968,0.082,2.219,1.134,2.219h13.136
			C339.011,294.569,338.365,293.318,338.929,292.351z"/>
		<path style="fill:#D84848;" d="M500.789,279.837L500.789,279.837L500.789,279.837z"/>
		<path style="fill:#D84848;" d="M440.821,294.178c-5.487-2.209-9.542-6.106-11.211-12.343c-2.136-7.974-0.479-14.167,2.147-24.698
			c2.389-9.597,7.406-26.259,8.984-30.848c3.477-10.112,6.284-13.475,10.698-16.594c4.701-3.323,11.383-4.609,19.298-4.98
			c-0.864-0.025-1.74-0.047-2.637-0.068c-12.501-0.289-23.133,0.338-29.796,5.048c-4.414,3.118-7.221,6.482-10.698,16.594
			c-1.578,4.589-6.595,21.251-8.984,30.848c-1.978,7.932-9.064,29.743,9.064,37.041c3.607,1.453,9.165,1.802,16.134,1.947
			c0.421,0.009,0.821-0.181,1.079-0.544c0.057-0.08,0.142-0.192,0.212-0.287C443.48,295.021,442.032,294.666,440.821,294.178z"/>
		<path style="fill:#D84848;" d="M491.877,223.429c-2.15-2.426-8.292-2.488-8.292-2.488s-5.367-0.199-7.93,0.062
			c-0.514,0.053-1.336,0.087-2.294,0.204c1.894,0.294,4.218,0.911,5.38,2.223c1.991,2.253,0.814,5.734,0.236,8.405
			c-0.635,2.945-6.025,22.65-8.349,30.242c-1.552,5.07-2.967,10.599-6.361,13.95c-2.084,2.059-4.385,2.922-6.922,3.413
			c1.037,0.354,1.813,0.422,1.813,0.422s4.824,0.428,7.905,0.074c3.938-0.447,7.355-0.962,10.339-3.909
			c3.394-3.351,4.809-8.88,6.361-13.95c2.324-7.592,7.714-27.298,8.349-30.242C492.691,229.163,493.867,225.682,491.877,223.429z"/>
		<path style="fill:#D84848;" d="M492.147,296.145L492.147,296.145L492.147,296.145z"/>
		<path style="fill:#D84848;" d="M166.382,292.683l25.211-86.681c-5.823-0.082-13.118-0.06-13.118-0.06l-25.228,86.741
			c-0.272,0.937,0.369,1.893,1.272,1.893h13.136C166.751,294.576,166.109,293.62,166.382,292.683z"/>
		<path style="fill:#D84848;" d="M484.556,280.011c-4.843,0.465-10.621,1.564-16.257,3.717
			c-10.002,3.825-18.323,12.699-19.597,23.482c0.662-1.367,4.776-7.486,14.926-9.78c0.627-0.142,1.318-0.267,2.037-0.385
			C465.593,284.879,484.556,280.011,484.556,280.011z"/>
	</g>
</g>
<g>
</g>
<g>
</g>
<g>
</g>
<g>
</g>
<g>
</g>
<g>
</g>
<g>
</g>
<g>
</g>
<g>
</g>
<g>
</g>
<g>
</g>
<g>
</g>
<g>
</g>
<g>
</g>
<g>
</g>
</svg>
