<?xml version="1.0" encoding="iso-8859-1"?>
<!-- Generator: Adobe Illustrator 19.0.0, SVG Export Plug-In . SVG Version: 6.00 Build 0)  -->
<svg version="1.1" id="Capa_1" xmlns="http://www.w3.org/2000/svg" xmlns:xlink="http://www.w3.org/1999/xlink" x="0px" y="0px"
	 viewBox="0 0 511.999 511.999" style="enable-background:new 0 0 511.999 511.999;" xml:space="preserve">
<path style="fill:#72BE4F;" d="M203.607,52.591v26.328c0,2.99,2.494,5.388,5.48,5.242c60.058-2.931,118.206,30.332,155.368,74.074
	c1.692,1.992,1.679,4.913-0.048,6.875c-37.336,42.409-97.329,89.001-154.909,81.97c-3.133-0.383-5.892,2.049-5.892,5.205v12.187
	c0,2.703,2.048,4.986,4.74,5.229c3.608,0.326,7.311,0.508,11.126,0.508c67.211,0,116.219-33.591,163.361-73.934
	c1.775-1.519,4.328-1.681,6.291-0.414c9.016,5.82,28.119,15.428,38.419,22.147c3.054,1.992,3.245,6.408,0.33,8.599
	c-50.153,37.707-160.233,68.582-218.686,64.469c-3.022-0.213-5.58,2.21-5.58,5.24v21.341c0,2.9,2.351,5.251,5.251,5.251h250.57
	c2.9,0,5.251-2.351,5.251-5.251V52.591c0-2.9-2.351-5.251-5.251-5.251h-250.57C205.957,47.34,203.607,49.691,203.607,52.591z"/>
<g>
	<path style="fill:#C2C2C4;" d="M215.217,464.657h23.302c1.053,0,1.906-0.853,1.906-1.906v-92.194c0-1.053-0.853-1.906-1.906-1.906
		h-23.314c-1.053,0-1.906,0.853-1.906,1.906l0.012,92.194C213.312,463.804,214.165,464.657,215.217,464.657z"/>
	<path style="fill:#C2C2C4;" d="M48.693,368.518H1.906c-1.053,0-1.906,0.853-1.906,1.906v92.328c0,1.053,0.853,1.906,1.906,1.906
		H25.45c1.053,0,1.906-0.853,1.906-1.906v-69.186c0-1.053,0.854-1.906,1.906-1.906l19.291,0.006
		c18.476,0,21.437,12.22,21.437,30.777v40.309c0,1.053,0.853,1.906,1.906,1.906h22.695c1.053,0,1.906-0.853,1.906-1.906v-51.21
		C96.497,373.631,72.335,368.518,48.693,368.518z"/>
	<path style="fill:#C2C2C4;" d="M149.782,438.443l-19.489-68.402c-0.233-0.819-0.981-1.383-1.832-1.384l-25.212-0.005
		c-1.293,0-2.211,1.26-1.814,2.491l29.731,92.194c0.254,0.787,0.987,1.321,1.814,1.321h36.308c0.826,0,1.557-0.531,1.812-1.317
		l29.973-92.194c0.4-1.231-0.518-2.495-1.812-2.495h-23.628c-0.843,0-1.586,0.554-1.827,1.362l-20.363,68.451
		C152.898,440.292,150.304,440.277,149.782,438.443z"/>
	<path style="fill:#C2C2C4;" d="M473.465,368.677l-33.629,0.012c-0.782,0-1.485,0.478-1.772,1.206l-36.363,92.123
		c-0.494,1.251,0.428,2.606,1.773,2.606h22.591c0.808,0,1.528-0.509,1.797-1.271l5.092-14.411c0.269-0.762,0.989-1.271,1.797-1.271
		h42.088c0.82,0,1.548,0.524,1.807,1.302l4.796,14.35c0.26,0.777,0.988,1.302,1.807,1.302h24.842c1.347,0,2.268-1.359,1.771-2.61
		l-36.626-92.135C474.948,369.153,474.246,368.676,473.465,368.677z M440.164,428.559l14.161-37.566
		c0.623-1.654,2.967-1.642,3.573,0.018l13.729,37.566c0.454,1.243-0.466,2.56-1.79,2.56h-27.89
		C440.616,431.137,439.695,429.806,440.164,428.559z"/>
	<path style="fill:#C2C2C4;" d="M295.013,368.651h-36.15c-1.053,0-1.906,0.853-1.906,1.906v92.194c0,1.053,0.853,1.906,1.906,1.906
		h42.071c23.431,0,31.081-3.894,39.354-12.633c5.841-6.133,9.622-19.596,9.622-34.313c0-13.501-3.197-25.533-8.777-33.031
		C331.089,371.273,316.615,368.651,295.013,368.651z M295.511,444.162h-9.75c-1.053,0-1.906-0.853-1.906-1.906v-50.794
		c0-1.053,0.853-1.906,1.906-1.906h9.75c16.919,0,27.853,7.594,27.853,27.299C323.364,436.568,312.429,444.162,295.511,444.162z"/>
	<path style="fill:#C2C2C4;" d="M364.425,464.657h23.32c1.053,0,1.906-0.853,1.906-1.906v-92.188c0-1.052-0.853-1.906-1.905-1.906
		l-23.32-0.005c-1.053,0-1.906,0.853-1.906,1.906v92.194C362.519,463.804,363.372,464.657,364.425,464.657z"/>
</g>
<g>
	<path style="fill:#B0B0B5;" d="M228.792,462.751l-0.012-92.194c0-1.053,0.853-1.906,1.906-1.906h-15.481
		c-1.053,0-1.906,0.853-1.906,1.906l0.012,92.194c0,1.052,0.853,1.906,1.906,1.906h15.481
		C229.646,464.657,228.793,463.804,228.792,462.751z"/>
	<path style="fill:#B0B0B5;" d="M15.481,462.751v-92.328c0-1.053,0.853-1.906,1.906-1.906H1.906c-1.052,0-1.906,0.853-1.906,1.906
		v92.328c0,1.053,0.853,1.906,1.906,1.906h15.481C16.334,464.657,15.481,463.804,15.481,462.751z"/>
	<path style="fill:#B0B0B5;" d="M146.645,463.336l-29.731-92.194c-0.394-1.222,0.509-2.469,1.787-2.487l-15.453-0.003
		c-1.293,0-2.211,1.26-1.814,2.491l29.731,92.194c0.254,0.787,0.986,1.321,1.814,1.321h15.481
		C147.632,464.657,146.899,464.123,146.645,463.336z"/>
	<path style="fill:#B0B0B5;" d="M417.182,462.017l36.363-92.123c0.287-0.728,0.99-1.206,1.772-1.206l18.183-0.006
		c-0.012,0-0.023-0.005-0.035-0.005l-33.629,0.012c-0.782,0-1.485,0.478-1.772,1.206l-36.363,92.123
		c-0.494,1.251,0.428,2.606,1.773,2.606h15.481C417.61,464.623,416.688,463.268,417.182,462.017z"/>
	<path style="fill:#B0B0B5;" d="M272.438,462.751v-92.194c0-1.053,0.853-1.906,1.906-1.906h-15.481
		c-1.053,0-1.906,0.853-1.906,1.906v92.194c0,1.053,0.853,1.906,1.906,1.906h15.481
		C273.292,464.657,272.438,463.804,272.438,462.751z"/>
	<path style="fill:#B0B0B5;" d="M378,462.751v-92.194c0-1.04,0.835-1.883,1.87-1.902l-15.445-0.004
		c-1.053,0-1.906,0.853-1.906,1.906v92.194c0,1.053,0.853,1.906,1.906,1.906h15.481C378.853,464.657,378,463.804,378,462.751z"/>
</g>
<g>
	<path style="fill:#66AF3F;" d="M90.772,165.971c0,0,37.653-55.556,112.835-61.302V84.513
		c-83.271,6.689-155.385,77.216-155.385,77.216s40.845,118.067,155.385,128.879v-21.421
		C119.554,258.61,90.772,165.971,90.772,165.971z"/>
	<path style="fill:#66AF3F;" d="M203.607,226.579v19.622c-63.525-11.328-81.16-77.367-81.16-77.367s30.5-33.789,81.16-39.267v21.529
		c-0.037,0-0.064-0.01-0.097-0.01c-26.587-3.192-47.357,21.646-47.357,21.646S167.793,214.546,203.607,226.579"/>
</g>
<path style="fill:#72BE4F;" d="M203.607,129.567v-24.895c2.42-0.171,4.857-0.302,7.347-0.379
	c68.079-2.138,112.745,58.503,112.745,58.503s-48.244,66.999-99.968,66.999c-7.445,0-14.121-1.195-20.125-3.216v-75.484
	c26.503,3.202,31.836,14.909,47.769,41.473l35.441-29.883c0,0-25.868-33.927-69.479-33.927
	C212.598,128.754,208.061,129.09,203.607,129.567"/>
<g>
	<path style="fill:#66AF3F;" d="M230.698,162.344c-6.49-6.189-14.337-9.708-27.092-11.249v75.484
		c6.004,2.021,12.68,3.216,20.125,3.216c2.331,0,4.654-0.141,6.967-0.4V162.344z"/>
	<path style="fill:#66AF3F;" d="M230.698,129.858v-24.431c-6.333-0.923-12.919-1.349-19.744-1.135
		c-2.49,0.077-4.927,0.208-7.347,0.379v24.895c4.454-0.477,8.992-0.812,13.731-0.809
		C222.002,128.758,226.45,129.165,230.698,129.858z"/>
	<path style="fill:#66AF3F;" d="M208.347,269.701c3.608,0.326,7.311,0.508,11.126,0.508c3.802,0,7.538-0.122,11.226-0.332v-22.525
		c-7.072,0.639-14.154,0.587-21.2-0.273c-3.133-0.383-5.892,2.049-5.892,5.205v12.187
		C203.607,267.175,205.655,269.458,208.347,269.701z"/>
	<path style="fill:#66AF3F;" d="M209.087,84.161c7.243-0.353,14.457-0.169,21.611,0.486V47.34h-21.841
		c-2.9,0-5.251,2.351-5.251,5.251v26.328C203.607,81.909,206.1,84.307,209.087,84.161z"/>
	<path style="fill:#66AF3F;" d="M230.698,291.174c-7.715,0.382-14.942,0.365-21.511-0.097c-3.022-0.213-5.58,2.211-5.58,5.24v21.341
		c0,2.9,2.351,5.251,5.251,5.251h21.841v-31.735H230.698z"/>
</g>
<g>
</g>
<g>
</g>
<g>
</g>
<g>
</g>
<g>
</g>
<g>
</g>
<g>
</g>
<g>
</g>
<g>
</g>
<g>
</g>
<g>
</g>
<g>
</g>
<g>
</g>
<g>
</g>
<g>
</g>
</svg>
