<?xml version="1.0" encoding="iso-8859-1"?>
<!-- Generator: Adobe Illustrator 19.0.0, SVG Export Plug-In . SVG Version: 6.00 Build 0)  -->
<svg version="1.1" id="Capa_1" xmlns="http://www.w3.org/2000/svg" xmlns:xlink="http://www.w3.org/1999/xlink" x="0px" y="0px"
	 viewBox="0 0 512 512" style="enable-background:new 0 0 512 512;" xml:space="preserve">
<g>
	<path style="fill:#E85454;" d="M208.063,297.571h-5.419c-2.032,1.431-1.926,5.794,0.052,7.394l44.801-0.01
		c44.647,0,56.143-26.772,56.143-49.58c0-35.863-24.893-49.682-57.03-49.682h-16.178c-2.813,1.801-2.219,7.465,0,8.396h14.402
		c20.842,0,33.943,13.912,33.943,41.333c0,29.501-12.935,42.32-35.868,42.32l-9.246-0.007c-1.44,0-2.55-1.737-2.56-2.579
		c0-5.486-0.037-40.085-0.037-42.986c0-14.221-9.731-22.034-25.491-22.034c-10.599,0-18.215,4.763-22.498,12.89
		c0-2.652,0-7.55,0-8.906c0-1.363-0.853-2.064-2.012-2.064c-1.167,0-26.678,0-26.678,0c-2.498,2.185-2.125,6.947-0.005,8.375
		c0,0,4.086,0.005,5.97,0.005c1.586,0,3.261,1.714,3.261,3.633c0,1.558-0.015,51.138-0.015,51.138c0,1.09-1.43,2.384-2.47,2.384
		l-5.055,0.009c-0.414,0.001-0.783,0.261-0.923,0.651l-1.932,5.402c-0.221,0.617,0.229,1.266,0.883,1.266
		c17.097,0.02,36.769,0.046,36.769,0.046c1.705-1.607,1.818-5.936,0.02-7.394h-4.495c-1.326,0-2.327-1.127-2.327-2.25v-39.832
		c7.597-20.639,26.313-20.418,26.313-5.531c0,3.306,0.01,38.922,0,44.807C210.38,296.4,209.161,297.571,208.063,297.571z"/>
	<path style="fill:#E85454;" d="M77.446,282.508c0,16.545,11.399,23.449,22.561,23.449c10.169,0,17.78-3.856,22.048-9.785
		c0.887,5.144,3.937,8.725,7.986,8.725c1.899,0,7.742,0.009,15.091,0.016c0.542,0,1.029-0.34,1.211-0.85l1.96-5.49
		c0.167-0.467-0.172-0.965-0.668-0.979c-4.646-0.127-6.713-1.32-6.83-6.547v-39.074c0-16.504-12.662-22.71-29.23-22.71
		c-9.854,0-17.616,1.098-25.594,3.865c-0.917,0.33-1.142,1.187-1.142,2.369c0,11-0.452,12.254,1.34,12.254
		c4.468-0.006,5.222,0.319,6.53-1.366c10.353-13.387,28.006-12.585,28.006,3.514v10.909
		C90.027,259.039,77.446,268.069,77.446,282.508z M120.714,286.79c-8.109,10.602-24.658,10.843-24.658-3.833
		c0-9.067,4.252-14.053,24.658-14.053C120.714,268.904,120.714,286.79,120.714,286.79z"/>
	<path style="fill:#E85454;" d="M320.1,297.607h-8.338c0,0-1.559,1.029-1.559,3.554c0,2.367,1.559,3.766,1.559,3.766h41.22
		c0,0,1.351-1.506,1.351-3.86c0-2.341-1.351-3.487-1.351-3.487l-8.442,0.027c-1.291,0-1.982-0.771-1.982-1.968
		c0,0-0.042-59.083-0.042-60.796s-0.609-2.839-2.652-2.839c-2.034,0-25.956,0.015-25.956,0.015c-2.235,2.108-2.285,6.073,0,8.262
		c7.738,0.041,8.163-0.287,8.163,1.145c0,0.733-0.042,54.085-0.042,54.085C322.03,296.679,320.957,297.607,320.1,297.607z"/>
	<path style="fill:#E85454;" d="M18.228,289.429c-3.427-3.561-6.717-6.985-9.81-13.46c-0.344-0.855-0.914-1.6-1.651-1.6
		c-5.238-0.009-6.522-0.479-6.522,1.573c0,20.798-0.358,21.155,1.211,22.068c10.145,5.737,23.365,7.997,34.344,7.94
		c19.445-0.127,34.535-13.031,34.535-33.78c0-22.27-20.44-25.071-36.713-30.676c-14.245-4.907-17.168-9.015-17.168-14.774
		c0-10.992,17.34-17.157,31.284-8.431c2.632,1.641,5.349,4.309,8.417,9.598c0.652,1.218,1.802,0.951,5.96,0.966
		c1.218-0.077,0.907,0.21,0.925-18.092c0-0.883-0.57-1.595-1.505-1.905c-8.42-2.776-16.657-4.061-27.681-4.061
		C13.554,204.794,0,216.328,0,233.966c0,35.465,54.091,25.125,54.091,48.478C54.091,297.753,28.859,300.448,18.228,289.429z"/>
	<path style="fill:#E85454;" d="M389.299,298.546c-7.905,0-15.326-5.828-19.732-16.203c-0.692-1.06-1.105-1.432-1.827-1.432
		c-2.198-0.057-4.406,0-5.005,0c-0.589,0-1.301,0.322-1.301,1.358c-0.01,3.756,0.022,14.278,0.022,15.214
		c0,1.187,1.6,2.441,1.6,2.441s4.56,2.79,9.619,4.524c20.933,7.22,43.996,0.421,43.996-22.262c0-29.794-40.343-18.933-40.343-34.784
		c0-12.13,21.649-12.455,29.857,0.713c0.443,0.743,1.083,1.043,2.022,1.043c3.453,0,4.654,0.255,4.654-0.971
		c0-13.871,0.411-14.413-1.383-14.944c-5.655-1.667-14.241-2.787-23.654-2.787c-31.455,0-36.089,37.558-6.286,45.667
		c15.656,4.232,20.198,6.455,20.198,13.138C401.737,295.052,397.195,298.546,389.299,298.546z"/>
</g>
<g>
	<path style="fill:#D84848;" d="M278.777,255.421c0,28.808-12.34,41.702-34.274,42.292c0.05,0.004,0.097,0.022,0.148,0.022
		l9.247,0.007c22.933,0,35.868-12.819,35.868-42.32c0-27.421-13.101-41.333-33.943-41.333h-10.989
		C265.676,214.088,278.777,228,278.777,255.421z"/>
	<path style="fill:#D84848;" d="M230.432,214.088h10.989c-2.219-0.931-2.813-6.595,0-8.396h-10.989
		C227.619,207.493,228.213,213.157,230.432,214.088z"/>
	<path style="fill:#D84848;" d="M221.322,303.006c0.01-5.885,0.047-49.742,0.047-53.049c0-9.426-7.503-12.962-14.937-9.056
		c2.391,1.707,3.948,4.769,3.948,9.056c0,3.306,0.01,38.922,0,44.807c0,1.636-1.219,2.807-2.317,2.807h-5.419
		c-2.032,1.431-1.926,5.794,0.052,7.394l17.948-0.004C221.047,304.467,221.322,303.793,221.322,303.006z"/>
	<path style="fill:#D84848;" d="M174.586,303.449c0,0,0.015-67.094,0.015-68.652c0-1.068-0.526-2.06-1.26-2.741
		c-7.889,0-18.956,0-18.956,0c-2.498,2.185-2.125,6.947-0.005,8.375c0,0,4.086,0.005,5.97,0.005c1.586,0,3.261,1.714,3.261,3.633
		c0,1.557-0.015,51.138-0.015,51.138c0,1.09-1.43,2.384-2.469,2.384l-5.055,0.009c-0.414,0.001-0.784,0.261-0.923,0.651
		l-1.932,5.402c-0.221,0.617,0.228,1.266,0.883,1.266c6.626,0.008,13.634,0.016,19.739,0.024
		C174.273,304.499,174.586,303.954,174.586,303.449z"/>
	<path style="fill:#D84848;" d="M88.435,282.508c0-12.264,9.084-20.622,30.622-21.778c-29.474-1.351-41.611,7.603-41.611,21.778
		c0,16.545,11.399,23.449,22.561,23.449c2.098,0,4.081-0.173,5.954-0.485C96.65,303.647,88.435,296.553,88.435,282.508z"/>
	<path style="fill:#D84848;" d="M86.178,247.753c4.468-0.006,5.222,0.319,6.53-1.366c0.988-1.278,2.044-2.424,3.144-3.443
		c-0.149-1.616-0.024-4.694-0.024-10.536c0-0.84,0.119-1.511,0.514-1.95c-3.533,0.618-6.932,1.482-10.361,2.672
		c-0.917,0.33-1.142,1.187-1.142,2.369C84.838,246.498,84.386,247.753,86.178,247.753z"/>
	<path style="fill:#D84848;" d="M333.02,303.754c0,0,0.042-70.867,0.042-71.599c0-0.053-0.002-0.099-0.004-0.147
		c-7.73,0.004-19.149,0.012-19.149,0.012c-2.235,2.108-2.285,6.073,0,8.262c7.738,0.041,8.163-0.287,8.163,1.145
		c0,0.733-0.042,54.085-0.042,54.085c0,1.167-1.073,2.096-1.93,2.096h-8.338c0,0-1.559,1.029-1.559,3.554
		c0,2.367,1.559,3.766,1.559,3.766h20.873C332.869,304.594,333.02,304.191,333.02,303.754z"/>
	<path style="fill:#D84848;" d="M47.946,218.289c2.632,1.641,5.349,4.309,8.417,9.598c0.651,1.218,1.802,0.951,5.96,0.966
		c0.817-0.051,0.946,0.052,0.948-5.396c-1.496-1.847-2.929-3.12-4.336-4.068c-5.851-3.96-12.296-5.076-17.811-4.169
		C43.429,215.894,45.73,216.902,47.946,218.289z"/>
	<path style="fill:#D84848;" d="M28.262,263.099c-9.484-4.984-17.063-12.4-17.063-26.756c0-17.737,11.723-29.76,29.687-31.36
		c-2.165-0.124-4.426-0.189-6.824-0.189c-20.299,0-33.852,11.533-33.852,29.172C0.21,252.139,14.412,258.284,28.262,263.099z"/>
	<path style="fill:#D84848;" d="M11.444,281.739c0-0.244,0.019-0.449,0.053-0.632c-0.973-1.492-1.93-3.173-2.869-5.138
		c-0.344-0.855-0.914-1.6-1.652-1.6c-5.238-0.01-6.522-0.479-6.522,1.573c0,20.798-0.358,21.155,1.211,22.068
		c3.043,1.721,6.365,3.123,9.818,4.249C11.343,299.379,11.444,293.669,11.444,281.739z"/>
	<path style="fill:#D84848;" d="M406.185,248.115c0.443,0.743,1.083,1.043,2.022,1.043c3.453,0,4.654,0.255,4.654-0.971
		c0-1.392,0.004-2.644,0.01-3.782c-5.317-4.744-12.454-6.326-17.84-4.934C399.368,240.949,403.497,243.804,406.185,248.115z"/>
	<path style="fill:#D84848;" d="M381.539,276.123c1.46,0.395,2.823,0.772,4.095,1.137c-20.748-12.047-16.478-43.397,9.479-46.575
		c-2.346-0.148-4.786-0.229-7.288-0.229C356.369,230.457,351.735,268.015,381.539,276.123z"/>
	<path style="fill:#D84848;" d="M372.445,303.518c0-0.955-0.028-11.07-0.023-15.715c-1.05-1.647-2.009-3.468-2.855-5.459
		c-0.692-1.06-1.105-1.432-1.827-1.432c-2.198-0.057-4.406,0-5.005,0c-0.588,0-1.301,0.322-1.301,1.358
		c-0.01,3.756,0.022,14.278,0.022,15.214c0,1.187,1.599,2.441,1.599,2.441s4.56,2.79,9.619,4.524
		c0.003,0.001,0.007,0.002,0.01,0.003C372.542,304.149,372.445,303.832,372.445,303.518z"/>
</g>
<path style="fill:#E85454;" d="M327.489,205.481c-0.327,0-0.613,0.217-0.703,0.531l-1.532,5.393
	c-0.016,0.055-1.976,6.982-2.696,9.531c-0.132,0.466,0.219,0.927,0.703,0.927h20.806c0.321,0,0.604-0.209,0.698-0.516l2.279-7.403
	c0.017-0.079,1.62-5.339,2.279-7.526c0.141-0.469-0.211-0.937-0.701-0.937L327.489,205.481L327.489,205.481z"/>
<path style="fill:#D84848;" d="M333.09,220.935c0.72-2.549,2.68-9.476,2.696-9.531l1.532-5.393c0.089-0.314,0.376-0.531,0.703-0.531
	H327.49c-0.327,0-0.613,0.217-0.703,0.531l-1.532,5.393c-0.016,0.055-1.976,6.982-2.696,9.531c-0.132,0.466,0.219,0.927,0.703,0.927
	h10.531C333.309,221.862,332.958,221.401,333.09,220.935z"/>
<path style="fill:#E85454;" d="M511.183,298.438c-0.297-0.505-0.848-0.806-1.434-0.8c-3.216,0.032-8.421,0.025-11.248-4.252
	c-0.792-1.179-20.167-30.744-23.892-36.514c-0.371-0.574-0.348-1.317,0.056-1.869c5.416-7.396,8.43-10.258,13.36-12.843
	c3.415-1.801,9.723-3.137,14.479-3.137c0.042,0,1.145-0.877,1.145-3.484c0-1.441-0.381-3.577-2.037-3.575l-22.308,0.021
	c-0.857-0.01-2.004,0.66-2.798,1.806c-0.437,0.626-13.584,19.536-20.529,29.535c-0.927,1.335-3.022,0.678-3.022-0.948v-54.212
	c0-1.445-0.877-2.575-2.6-2.575c-1.548,0-24.001-0.008-28.294-0.01c-0.506,0-1.003,0.211-1.295,0.625
	c-1.091,1.548-1.085,4.314,0.005,6.06c0.29,0.465,0.825,0.719,1.372,0.719h8.374c1.021,0,1.849,0.828,1.849,1.849v80.994
	c0,1.15-0.567,1.707-1.372,1.707h-8.137c-1.574,0-2.226,2.167-2.226,3.598c0,1.439,0.67,3.796,2.266,3.796
	c5.037,0,31.442,0,36.925,0c0.658,0,1.266-0.379,1.518-0.986c0.701-1.685,0.733-3.773,0.093-5.337
	c-0.26-0.636-0.876-1.054-1.563-1.054h-5.409c-0.805,0-1.528-0.677-1.528-1.673v-18.151c0-0.429,0.164-0.839,0.462-1.149
	c1.855-1.931,4.672-4.84,5.071-5.256c1.155-1.177,2.435-0.744,3.085,0.288c17.152,27.818,20.012,26.195,11.739,26.106
	c-2.757-0.029-2.867,7.242-0.096,7.247h36.701c0.601,0.001,1.177-0.311,1.453-0.846C512.22,302.433,512.267,300.283,511.183,298.438
	z"/>
<g>
	<path style="fill:#D84848;" d="M470,264.473c-0.777-1.233-2.304-1.749-3.683-0.344c-0.422,0.44-3.939,4.075-6.277,6.503
		c0.61,0.04,1.157,0.412,1.514,0.978c17.152,27.818,20.012,26.195,11.739,26.106c-1.616-0.017-2.094,2.017-2.113,3.556
		c-0.019,1.574,0.405,3.688,2.017,3.691h23.335C496.247,302.704,482.915,285.421,470,264.473z"/>
	<path style="fill:#D84848;" d="M442.37,303.684v-96.685c0-0.54-0.202-1.029-0.524-1.412c-7.332-0.003-17.103-0.006-19.785-0.007
		c-0.506,0-1.003,0.211-1.295,0.625c-1.091,1.548-1.085,4.314,0.005,6.06c0.29,0.465,0.825,0.719,1.372,0.719h8.374
		c1.021,0,1.849,0.828,1.849,1.849v80.994c0,1.15-0.567,1.707-1.372,1.707h-8.137c-1.574,0-2.226,2.167-2.226,3.598
		c0,1.435,0.669,3.796,2.266,3.796c2.615,0,10.992,0,19.209,0C442.276,304.61,442.37,304.197,442.37,303.684z"/>
</g>
<g>
</g>
<g>
</g>
<g>
</g>
<g>
</g>
<g>
</g>
<g>
</g>
<g>
</g>
<g>
</g>
<g>
</g>
<g>
</g>
<g>
</g>
<g>
</g>
<g>
</g>
<g>
</g>
<g>
</g>
</svg>
