<?xml version="1.0" encoding="iso-8859-1"?>
<!-- Generator: Adobe Illustrator 19.0.0, SVG Export Plug-In . SVG Version: 6.00 Build 0)  -->
<svg version="1.1" id="Capa_1" xmlns="http://www.w3.org/2000/svg" xmlns:xlink="http://www.w3.org/1999/xlink" x="0px" y="0px"
	 viewBox="0 0 512 512" style="enable-background:new 0 0 512 512;" xml:space="preserve">
<path style="fill:#F21938;" d="M500.88,199.632l-27.129,58.183c-0.242,0.52-0.982,0.52-1.224-0.001l-9.763-21.018
	c-0.111-0.238-0.35-0.391-0.612-0.391h-9.918c-0.494,0-0.82,0.513-0.612,0.96l16.704,35.806c0.111,0.238,0.349,0.39,0.612,0.39h8.36
	c0.262,0,0.501-0.152,0.612-0.39l34.026-72.968c0.209-0.447-0.118-0.96-0.612-0.96h-9.833
	C501.229,199.243,500.99,199.395,500.88,199.632z"/>
<g>
	<path style="fill:#777777;" d="M336.719,234.372c-23.571,0-39.335,16.922-39.335,39.196c0,22.122,15.764,39.189,39.335,39.189
		c23.577,0,39.342-17.068,39.342-39.189C376.06,251.294,360.296,234.372,336.719,234.372z M336.58,296.127
		c-10.703,0-16.347-8.964-16.347-22.558c0-13.74,5.643-22.565,16.347-22.565c10.697,0,16.631,8.825,16.631,22.565
		C353.211,287.163,347.277,296.127,336.58,296.127z"/>
	<path style="fill:#777777;" d="M204.532,310.442h22.132c0.158,0,0.286-0.128,0.286-0.286v-73.474c0-0.158-0.128-0.286-0.286-0.286
		h-22.132c-0.158,0-0.286,0.128-0.286,0.286v73.474C204.246,310.314,204.374,310.442,204.532,310.442z"/>
	<path style="fill:#777777;" d="M151.887,310.442h21.986c0.158,0,0.286-0.128,0.286-0.286v-33.697
		c0-15.473,9.255-22.274,23.432-20.395h0.43v-19.318c0-0.122-0.076-0.233-0.191-0.273c-1.111-0.383-2.382-0.513-4.433-0.513
		c-8.825,0-14.753,4.055-19.813,12.728h-0.437v-12.005c0-0.158-0.128-0.286-0.286-0.286h-20.974c-0.158,0-0.286,0.128-0.286,0.286
		v73.474C151.601,310.314,151.729,310.442,151.887,310.442z"/>
	<path style="fill:#777777;" d="M25.834,310.442h23.309c0.122,0,0.23-0.077,0.27-0.192l25.548-73.474
		c0.065-0.186-0.073-0.38-0.27-0.38H52.595c-0.126,0-0.237,0.082-0.274,0.203l-14.399,47.382h-0.291l-14.399-47.382
		c-0.037-0.12-0.148-0.203-0.274-0.203H0.286c-0.197,0-0.335,0.194-0.27,0.38l25.548,73.474
		C25.604,310.365,25.712,310.442,25.834,310.442z"/>
	<path style="fill:#777777;" d="M204.532,210.074h22.132c0.158,0,0.286,0.128,0.286,0.286v19.532c0,0.158-0.128,0.286-0.286,0.286
		h-22.132c-0.158,0-0.286-0.128-0.286-0.286V210.36C204.246,210.202,204.374,210.074,204.532,210.074z"/>
	<path style="fill:#777777;" d="M133.376,243.197c-6.218-5.789-14.462-8.97-24.874-8.97c-22.274,0-37.747,16.922-37.747,39.051
		c0,22.274,14.752,39.335,39.19,39.335c9.261,0,16.637-2.454,22.71-6.648c6.393-4.404,10.967-10.761,12.364-17.153
		c0.039-0.18-0.102-0.351-0.287-0.351H123.58c-0.11,0-0.208,0.065-0.254,0.165c-2.197,4.821-6.656,7.647-13.236,7.647
		c-9.866,0-15.914-6.367-17.166-16.157c-0.022-0.172,0.115-0.329,0.288-0.329h52.751c0.158,0,0.288-0.131,0.289-0.289
		C146.343,263.723,142.147,251.1,133.376,243.197z M121.573,265.034h-26.71c-0.957,0-1.658-0.911-1.418-1.838
		c2.019-7.781,6.755-12.769,15.486-12.769c7.424,0,12.706,5.157,14.085,12.895C123.176,264.214,122.478,265.034,121.573,265.034z"/>
	<path style="fill:#777777;" d="M296.231,292.654h-35.582v-0.43l34.202-38.394c0.025-0.066,0.048-0.125,0.073-0.19v-16.957
		c0-0.158-0.128-0.286-0.286-0.286c-7.44,0-53.651,0-61.183,0c-0.158,0-0.286,0.128-0.286,0.286V253.9
		c0,0.158,0.128,0.286,0.286,0.286h34.425v0.437L233.241,293.3c-0.025,0.066-0.048,0.125-0.073,0.191v16.666
		c0,0.158,0.128,0.286,0.286,0.286h62.776c0.158,0,0.286-0.128,0.286-0.286V292.94C296.517,292.782,296.389,292.654,296.231,292.654
		z"/>
	<path style="fill:#777777;" d="M425.808,234.227c-10.121,0-17.206,4.34-22.558,12.291h-0.437v-9.836
		c0-0.158-0.128-0.286-0.286-0.286h-21.266c-0.158,0-0.286,0.128-0.286,0.286v73.474c0,0.158,0.128,0.286,0.286,0.286h21.993
		c0.158,0,0.286-0.128,0.286-0.286v-40.928c0-7.876,3.855-13.825,9.871-15.547c7.847-2.246,15.584,4.027,15.584,12.188v44.287
		c0,0.158,0.128,0.286,0.286,0.286h21.987c0.158,0,0.286-0.128,0.286-0.286c0-1.023,0-51.792,0-50.715
		c0-4.336-0.945-8.66-3.033-12.461C444.191,239.097,436.128,234.227,425.808,234.227z"/>
</g>
<g>
	<path style="fill:#646566;" d="M342.089,295.209c1.648,0.602,3.478,0.918,5.485,0.918c10.697,0,16.631-8.964,16.631-22.558
		c0-13.74-5.934-22.565-16.631-22.565c-2.008,0-3.838,0.311-5.485,0.906c7.205,2.578,11.122,10.496,11.122,21.659
		C353.211,284.613,349.294,292.6,342.089,295.209z"/>
	<path style="fill:#646566;" d="M308.379,273.568c0-20.492,13.349-36.443,33.838-38.866c-1.782-0.211-3.612-0.331-5.498-0.331
		c-23.571,0-39.335,16.922-39.335,39.196c0,22.122,15.764,39.189,39.335,39.189c1.886,0,3.716-0.121,5.498-0.333
		C321.728,309.983,308.379,293.92,308.379,273.568z"/>
	<path style="fill:#646566;" d="M215.24,310.156v-73.474c0-0.158,0.128-0.286,0.286-0.286h-10.995c-0.158,0-0.286,0.128-0.286,0.286
		v73.474c0,0.158,0.128,0.286,0.286,0.286h10.995C215.369,310.442,215.24,310.314,215.24,310.156z"/>
	<path style="fill:#646566;" d="M162.596,310.156v-73.474c0-0.158,0.128-0.286,0.286-0.286h-10.995
		c-0.158,0-0.286,0.128-0.286,0.286v73.474c0,0.158,0.128,0.286,0.286,0.286h10.995
		C162.724,310.442,162.596,310.314,162.596,310.156z"/>
	<path style="fill:#646566;" d="M36.559,310.25l-25.548-73.474c-0.065-0.186,0.073-0.38,0.27-0.38H0.286
		c-0.197,0-0.335,0.194-0.27,0.38l25.548,73.474c0.04,0.115,0.149,0.192,0.27,0.192h10.995
		C36.707,310.442,36.599,310.365,36.559,310.25z"/>
	<path style="fill:#646566;" d="M52.595,236.396c-0.126,0-0.237,0.083-0.274,0.203l-14.399,47.382h9.49c0,0,1.487,0.057,1.908-1.327
		l13.996-46.055c0.037-0.12,0.148-0.203,0.274-0.203H52.595z"/>
	<path style="fill:#646566;" d="M215.24,229.892V210.36c0-0.158,0.128-0.286,0.286-0.286h-10.995c-0.158,0-0.286,0.128-0.286,0.286
		v19.532c0,0.158,0.128,0.286,0.286,0.286h10.995C215.369,230.178,215.24,230.05,215.24,229.892z"/>
	<path style="fill:#646566;" d="M134.32,288.625c0.046-0.1,0.144-0.165,0.254-0.165h-10.995c-0.11,0-0.208,0.065-0.254,0.165
		c-1.521,3.339-4.13,5.719-7.775,6.868c1.684,0.503,3.525,0.78,5.533,0.78C127.664,296.272,132.123,293.446,134.32,288.625z"/>
	<path style="fill:#646566;" d="M123.017,263.322c0.159,0.892-0.539,1.712-1.444,1.712h10.995c0.906,0,1.603-0.82,1.445-1.712
		c-1.38-7.737-6.662-12.895-14.085-12.895c-2.206,0-4.155,0.32-5.871,0.922C118.745,253.159,121.981,257.513,123.017,263.322z"/>
	<path style="fill:#646566;" d="M81.749,273.277c0-20.326,13.06-36.248,32.45-38.709c-1.822-0.225-3.72-0.342-5.697-0.342
		c-22.274,0-37.747,16.922-37.747,39.051c0,22.274,14.752,39.335,39.19,39.335c1.884,0,3.671-0.127,5.405-0.324
		C94.274,309.877,81.749,293.795,81.749,273.277z"/>
	<path style="fill:#646566;" d="M233.454,254.185h10.995c-0.158,0-0.286-0.128-0.286-0.286v-17.217c0-0.158,0.128-0.286,0.286-0.286
		h-10.995c-0.158,0-0.286,0.128-0.286,0.286v17.217C233.168,254.057,233.296,254.185,233.454,254.185z"/>
	<path style="fill:#646566;" d="M244.163,310.156V293.49c0.025-0.066,0.048-0.125,0.073-0.191l34.638-38.678v-0.437h-10.995v0.437
		L233.241,293.3c-0.025,0.066-0.048,0.125-0.073,0.191v16.666c0,0.158,0.128,0.286,0.286,0.286h10.995
		C244.291,310.442,244.163,310.314,244.163,310.156z"/>
	<path style="fill:#646566;" d="M391.97,310.156v-73.474c0-0.158,0.128-0.286,0.286-0.286h-10.995c-0.158,0-0.286,0.128-0.286,0.286
		v73.474c0,0.158,0.128,0.286,0.286,0.286h10.995C392.098,310.442,391.97,310.314,391.97,310.156z"/>
	<path style="fill:#646566;" d="M439.991,310.156v-44.287c0-8.162-7.738-14.434-15.584-12.188c-0.798,0.228-1.554,0.536-2.272,0.907
		c3.999,2.078,6.861,6.324,6.861,11.281v44.287c0,0.158,0.128,0.286,0.286,0.286h10.995
		C440.119,310.442,439.991,310.314,439.991,310.156z"/>
</g>
<g>
</g>
<g>
</g>
<g>
</g>
<g>
</g>
<g>
</g>
<g>
</g>
<g>
</g>
<g>
</g>
<g>
</g>
<g>
</g>
<g>
</g>
<g>
</g>
<g>
</g>
<g>
</g>
<g>
</g>
</svg>
