<?xml version="1.0" encoding="iso-8859-1"?>
<!-- Generator: Adobe Illustrator 19.0.0, SVG Export Plug-In . SVG Version: 6.00 Build 0)  -->
<svg version="1.1" id="Capa_1" xmlns="http://www.w3.org/2000/svg" xmlns:xlink="http://www.w3.org/1999/xlink" x="0px" y="0px"
	 viewBox="0 0 512 512" style="enable-background:new 0 0 512 512;" xml:space="preserve">
<circle style="fill:#D6D6D8;" cx="433.8" cy="256" r="78.2"/>
<path style="fill:#C2C2C4;" d="M375.896,256.003c0-39.747,29.661-72.545,68.052-77.524c-47.139-6.113-88.35,30.552-88.35,77.524
	c0,46.896,41.139,83.646,88.35,77.524C405.557,328.547,375.896,295.75,375.896,256.003z"/>
<g>
	<path style="fill:#E85454;" d="M259.25,253.111c0,20.556-14.574,35.783-35.154,35.783c-20.982,0-35.227-14.572-35.227-35.768
		c0-20.046,14.053-35.795,35.227-35.795C244.676,217.332,259.25,232.557,259.25,253.111z M241.078,253.115
		c0-12.017-4.645-22.68-16.972-22.68c-12.332,0-17.081,10.663-17.081,22.68c0,12.021,4.75,22.69,17.081,22.69
		C236.433,275.805,241.078,265.136,241.078,253.115z"/>
	<path style="fill:#E85454;" d="M125.553,224.91c-5.498-4.89-12.88-7.528-22.004-7.528c-18.82,0-34.751,15.008-34.751,36.158
		c0,22.33,14.4,35.427,36.734,35.427c9.01,0,19.894-3.4,24.56-6.286c1.633-1.009,2.145-1.443,1.722-3.093l-2.915-8.255
		c-0.337-1.354-1.841-1.7-3.06-1.095c-19.557,9.614-36.951,4.82-38.701-11.344h46.175c1.68,0,2.427-1.162,2.427-3.125
		C135.74,248.519,136.178,234.346,125.553,224.91z M118.985,246.479c0,0-20.034,0-31.871,0c1.383-9.337,7.909-15.983,17.015-15.983
		c9.222,0,14.856,6.264,14.856,15.561V246.479z"/>
	<path style="fill:#E85454;" d="M178.831,217.449c3.133,0,6.98,0.35,9.395,0.922c1.589,0.376,1.833,1.617,1.54,3.212l-1.583,7.778
		c-0.366,1.453-0.764,1.868-1.908,1.868c-0.178,0-0.517-0.032-0.932-0.083c-1.098-0.135-4.245-0.481-5.559-0.481
		c-15.771,0-14.975,9.92-14.975,19.248c0,1.787,0,34.561,0,34.561c0,2.276-0.996,3.548-3.438,3.548h-10.548
		c-2.259,0-3.233-1.13-3.416-3.548c0,0,0-29.965,0-33.929C147.405,236.324,146.896,217.449,178.831,217.449z"/>
	<path style="fill:#E85454;" d="M33.902,241.605c2.369-2.45,7.871-9.248,13.984-20.774c1.017-1.977,1.937-2.458,3.313-2.458h11.349
		c1.015,0,2.239,0.491,1.576,2.458c-4.499,13.372-14.796,25.085-20.475,31.148c6.203,5.876,17.202,19.783,22.37,33.411
		c0.467,1.227,0.237,2.632-2.357,2.632H50.109c-1.409,0-2.499-0.138-3.441-2.454c-3.363-8.377-8.614-17.16-14.611-22.937
		c-6.545,6.947-11.533,15.514-14.893,22.937c-0.82,1.819-1.64,2.454-3.431,2.454H1.303c-0.83,0-1.675-0.976-1.131-2.466
		c3.697-10.143,11.064-22.767,21.597-32.257C13.503,243.293,5.531,231.1,2.388,220.831c-0.473-1.544,0.353-2.458,1.5-2.458h14.601
		c1.578,0,2.402,0.643,3.183,2.458C25.259,229.2,30.168,237.174,33.902,241.605z"/>
	<path style="fill:#E85454;" d="M295.217,241.605c2.367-2.45,7.869-9.248,13.98-20.774c1.017-1.977,1.939-2.458,3.317-2.458h11.344
		c1.017,0,2.244,0.491,1.579,2.458c-4.497,13.372-14.796,25.085-20.472,31.148c6.194,5.876,17.194,19.783,22.367,33.411
		c0.463,1.227,0.233,2.632-2.359,2.632H311.42c-1.405,0-2.493-0.138-3.444-2.454c-3.36-8.377-8.609-17.16-14.609-22.937
		c-6.547,6.947-11.534,15.514-14.894,22.937c-0.819,1.819-1.639,2.454-3.428,2.454h-12.428c-0.827,0-1.678-0.976-1.132-2.466
		c3.697-10.143,11.063-22.767,21.596-32.257c-8.269-10.006-16.24-22.199-19.383-32.468c-0.471-1.544,0.356-2.458,1.5-2.458H279.8
		c1.575,0,2.403,0.643,3.182,2.458C286.573,229.2,291.481,237.174,295.217,241.605z"/>
	<path style="fill:#E85454;" d="M259.25,253.111c0,20.556-14.574,35.783-35.154,35.783c-20.982,0-35.227-14.572-35.227-35.768
		c0-20.046,14.053-35.795,35.227-35.795C244.676,217.332,259.25,232.557,259.25,253.111z M241.078,253.115
		c0-12.017-4.645-22.68-16.972-22.68c-12.332,0-17.081,10.663-17.081,22.68c0,12.021,4.75,22.69,17.081,22.69
		C236.433,275.805,241.078,265.136,241.078,253.115z"/>
	<path style="fill:#E85454;" d="M125.553,224.91c-5.498-4.89-12.88-7.528-22.004-7.528c-18.82,0-34.751,15.008-34.751,36.158
		c0,22.33,14.4,35.427,36.734,35.427c9.01,0,19.894-3.4,24.56-6.286c1.633-1.009,2.145-1.443,1.722-3.093l-2.915-8.255
		c-0.337-1.354-1.841-1.7-3.06-1.095c-19.557,9.614-36.951,4.82-38.701-11.344h46.175c1.68,0,2.427-1.162,2.427-3.125
		C135.74,248.519,136.178,234.346,125.553,224.91z M118.985,246.479c0,0-20.034,0-31.871,0c1.383-9.337,7.909-15.983,17.015-15.983
		c9.222,0,14.856,6.264,14.856,15.561V246.479z"/>
	<path style="fill:#E85454;" d="M178.831,217.449c3.133,0,6.98,0.35,9.395,0.922c1.589,0.376,1.833,1.617,1.54,3.212l-1.583,7.778
		c-0.366,1.453-0.764,1.868-1.908,1.868c-0.178,0-0.517-0.032-0.932-0.083c-1.098-0.135-4.245-0.481-5.559-0.481
		c-15.771,0-14.975,9.92-14.975,19.248c0,1.787,0,34.561,0,34.561c0,2.276-0.996,3.548-3.438,3.548h-10.548
		c-2.259,0-3.233-1.13-3.416-3.548c0,0,0-29.965,0-33.929C147.405,236.324,146.896,217.449,178.831,217.449z"/>
	<path style="fill:#E85454;" d="M295.217,241.605c2.367-2.45,7.869-9.248,13.98-20.774c1.017-1.977,1.939-2.458,3.317-2.458h11.344
		c1.017,0,2.244,0.491,1.579,2.458c-4.497,13.372-14.796,25.085-20.472,31.148c6.194,5.876,17.194,19.783,22.367,33.411
		c0.463,1.227,0.233,2.632-2.359,2.632H311.42c-1.405,0-2.493-0.138-3.444-2.454c-3.36-8.377-8.609-17.16-14.609-22.937
		c-6.547,6.947-11.534,15.514-14.894,22.937c-0.819,1.819-1.639,2.454-3.428,2.454h-12.428c-0.827,0-1.678-0.976-1.132-2.466
		c3.697-10.143,11.063-22.767,21.596-32.257c-8.269-10.006-16.24-22.199-19.383-32.468c-0.471-1.544,0.356-2.458,1.5-2.458H279.8
		c1.575,0,2.403,0.643,3.182,2.458C286.573,229.2,291.481,237.174,295.217,241.605z"/>
</g>
<g>
	<path style="fill:#D84848;" d="M228.796,275.207c1.427,0.386,2.986,0.598,4.697,0.598c12.328,0,16.973-10.669,16.973-22.69
		c0-12.017-4.645-22.68-16.973-22.68c-1.711,0-3.271,0.212-4.697,0.598c8.832,2.394,12.282,11.733,12.282,22.082
		C241.078,263.468,237.627,272.812,228.796,275.207z"/>
	<path style="fill:#D84848;" d="M198.256,253.127c0-18.516,11.996-33.356,30.512-35.514c-1.52-0.179-3.076-0.281-4.673-0.281
		c-21.174,0-35.227,15.749-35.227,35.795c0,21.196,14.245,35.768,35.227,35.768c1.573,0,3.106-0.099,4.605-0.273
		C210.369,286.569,198.256,272.668,198.256,253.127z"/>
	<path style="fill:#D84848;" d="M78.185,253.539c0-17.957,11.813-33.398,30.463-35.861c-1.635-0.195-3.334-0.296-5.1-0.296
		c-18.82,0-34.751,15.008-34.751,36.158c0,22.331,14.401,35.427,36.734,35.427c1.409,0,2.866-0.091,4.335-0.243
		C90.62,286.897,78.185,274.314,78.185,253.539z"/>
	<path style="fill:#D84848;" d="M156.793,284.474c0,0,0-29.965,0-33.929c0-12.548-0.809-30.986,26.224-32.915
		c-1.416-0.115-2.863-0.181-4.186-0.181c-13.333,0-21.475,3.058-26.7,9.794c-4.004,5.165-4.726,10.944-4.726,23.302
		c0,3.964,0,33.929,0,33.929c0.183,2.418,1.157,3.548,3.416,3.548h9.388C157.95,288.022,156.976,286.892,156.793,284.474z"/>
	<path style="fill:#D84848;" d="M9.56,285.556c3.589-9.847,10.637-22.032,20.683-31.418c0.51-0.476,0.571-1.253,0.131-1.795
		c-7.982-9.82-15.555-21.568-18.598-31.512c-0.473-1.544,0.353-2.458,1.5-2.458H3.888c-1.147,0-1.973,0.914-1.5,2.458
		c3.143,10.269,11.116,22.462,19.382,32.468c-10.534,9.49-17.9,22.114-21.597,32.257c-0.545,1.49,0.301,2.466,1.131,2.466h9.388
		C9.861,288.022,9.016,287.046,9.56,285.556z"/>
</g>
<path style="fill:#E85454;" d="M397.486,198.671c22.512,0,42.91,7.455,59.374,18.09c1.406,0.908,3.273,0.037,3.494-1.622
	c0.679-5.103,1.042-10.188,1.042-15.198c0-10.782-2.308-16.069-4.096-18.539c-27.896-8.78-59.34-1.438-80.499,21.089
	C380.983,200.58,388.451,198.671,397.486,198.671z"/>
<path style="fill:#D84848;" d="M376.803,202.49c4.181-1.91,11.649-3.819,20.683-3.819c1.137,0,2.265,0.032,3.391,0.07
	c11.624-10.801,26.533-18.117,43.07-20.261C418.438,175.171,393.749,184.451,376.803,202.49z"/>
<g>
	<path style="fill:#E85454;" d="M487.928,221.978c0,6.965-0.524,13.736-1.5,20.27c-0.133,0.891,0.102,1.793,0.647,2.511
		c10.897,14.357,17.118,29.552,17.118,40.675c0,1.62-0.171,3.764-0.371,5.384c5.224-10.487,8.178-22.304,8.178-34.816
		c0-24.299-11.085-46.01-28.472-60.353C485.401,199.359,487.928,206.966,487.928,221.978z"/>
	<path style="fill:#E85454;" d="M488.267,310.463c0-6.535-4.579-16.764-12.054-26.558c-0.854-1.118-2.598-0.979-3.242,0.272
		c-13.493,26.193-34.66,44.833-51.763,49.003c24.933,4.038,49.434-4.057,66.919-20.957
		C488.206,311.711,488.267,311.139,488.267,310.463z"/>
</g>
<path style="fill:#D84848;" d="M429.452,330.204c-2.817,1.326-5.58,2.327-8.244,2.976c7.759,1.257,15.362,1.303,22.74,0.346
	C438.951,332.878,434.107,331.749,429.452,330.204z"/>
<path style="fill:#E85454;" d="M427.703,243.684c6.391,3.468,12.535,7.386,18.282,11.559c1.381,1.003,1.87,2.852,1.168,4.407
	c-14.897,32.989-39.22,60.345-54.986,62.538c-29.591-18.653-43.185-54.428-33.471-87.971c2.999-1.974,9.63-4.857,19.444-4.857
	c5.4,0,10.869,0.62,16.334,1.741C394.474,231.102,411.808,234.921,427.703,243.684z"/>
<g>
	<path style="fill:#D84848;" d="M380.559,229.406c-0.807-0.027-1.614-0.045-2.418-0.045c-9.814,0-16.445,2.883-19.444,4.857
		c-0.001,0.002-0.001,0.004-0.002,0.006c-9.627,33.248,3.674,69.182,33.473,87.964c3.763-0.523,8.016-2.494,12.509-5.619
		C378.727,295.386,369.322,260.447,380.559,229.406z"/>
	<path style="fill:#D84848;" d="M127.355,246.479c0.233-0.004,0.921-0.094,1-0.887c-0.188-9.036-5.773-15.096-14.838-15.096
		c-1.63,0-3.182,0.219-4.641,0.628c6.37,1.802,10.109,7.36,10.109,14.933v0.422C122.777,246.479,125.845,246.479,127.355,246.479z"
		/>
	<path style="fill:#D84848;" d="M292.01,253.729c0.009-0.01,0.005-0.017,0.016-0.027c0.373-0.346,0.207-0.682,0.086-0.843
		c-0.017-0.021-0.034-0.042-0.052-0.063c-0.02-0.021-0.034-0.036-0.034-0.036l0.003-0.002c-8.11-9.903-15.856-21.841-18.943-31.927
		c-0.471-1.544,0.356-2.458,1.5-2.458h-9.388c-1.144,0-1.971,0.914-1.5,2.458c3.143,10.269,11.115,22.462,19.383,32.468
		c-10.533,9.49-17.899,22.114-21.596,32.257c-0.546,1.49,0.305,2.466,1.132,2.466h9.388c-0.827,0-1.678-0.976-1.132-2.466
		C274.516,275.564,281.726,263.169,292.01,253.729z"/>
</g>
<g>
</g>
<g>
</g>
<g>
</g>
<g>
</g>
<g>
</g>
<g>
</g>
<g>
</g>
<g>
</g>
<g>
</g>
<g>
</g>
<g>
</g>
<g>
</g>
<g>
</g>
<g>
</g>
<g>
</g>
</svg>
